<svg width="60" height="60" viewBox="0 0 60 60" fill="none" xmlns="http://www.w3.org/2000/svg">
<path d="M10 49.9998C8.625 49.9998 7.44833 49.5106 6.47 48.5323C5.49 47.5523 5 46.3748 5 44.9998V14.9998C5 13.6248 5.49 12.4481 6.47 11.4698C7.44833 10.4898 8.625 9.99976 10 9.99976H50C51.375 9.99976 52.5525 10.4898 53.5325 11.4698C54.5108 12.4481 55 13.6248 55 14.9998V44.9998C55 46.3748 54.5108 47.5523 53.5325 48.5323C52.5525 49.5106 51.375 49.9998 50 49.9998H10ZM30 32.4998L50 19.9998V14.9998L30 27.4998L10 14.9998V19.9998L30 32.4998Z" fill="#525252"/>
</svg>
