<svg width="71" height="71" viewBox="0 0 71 71" fill="none" xmlns="http://www.w3.org/2000/svg">
<path d="M35.4997 35.5C37.1268 35.5 38.5201 34.9201 39.6798 33.7605C40.8375 32.6028 41.4163 31.2104 41.4163 29.5833C41.4163 27.9562 40.8375 26.5628 39.6798 25.4032C38.5201 24.2455 37.1268 23.6666 35.4997 23.6666C33.8726 23.6666 32.4802 24.2455 31.3225 25.4032C30.1628 26.5628 29.583 27.9562 29.583 29.5833C29.583 31.2104 30.1628 32.6028 31.3225 33.7605C32.4802 34.9201 33.8726 35.5 35.4997 35.5ZM35.4997 65.0833C27.5615 58.3284 21.633 52.0538 17.7142 46.2594C13.7934 40.467 11.833 35.1055 11.833 30.175C11.833 22.7791 14.2125 16.8871 18.9715 12.4989C23.7285 8.11072 29.2379 5.91663 35.4997 5.91663C41.7615 5.91663 47.2709 8.11072 52.0279 12.4989C56.7869 16.8871 59.1663 22.7791 59.1663 30.175C59.1663 35.1055 57.2069 40.467 53.2881 46.2594C49.3674 52.0538 43.4379 58.3284 35.4997 65.0833Z" fill="#002157"/>
</svg>
