<svg width="50" height="50" viewBox="0 0 50 50" fill="none" xmlns="http://www.w3.org/2000/svg">
<path d="M24.9997 25.0001C26.1455 25.0001 27.1268 24.5918 27.9434 23.7751C28.7587 22.9598 29.1663 21.9793 29.1663 20.8334C29.1663 19.6876 28.7587 18.7063 27.9434 17.8897C27.1268 17.0744 26.1455 16.6667 24.9997 16.6667C23.8538 16.6667 22.8733 17.0744 22.058 17.8897C21.2413 18.7063 20.833 19.6876 20.833 20.8334C20.833 21.9793 21.2413 22.9598 22.058 23.7751C22.8733 24.5918 23.8538 25.0001 24.9997 25.0001ZM24.9997 45.8334C19.4094 41.0765 15.2344 36.6577 12.4747 32.5772C9.71356 28.498 8.33301 24.7223 8.33301 21.2501C8.33301 16.0417 10.0087 11.8924 13.3601 8.80217C16.7101 5.71189 20.59 4.16675 24.9997 4.16675C29.4094 4.16675 33.2893 5.71189 36.6393 8.80217C39.9906 11.8924 41.6663 16.0417 41.6663 21.2501C41.6663 24.7223 40.2865 28.498 37.5268 32.5772C34.7656 36.6577 30.5899 41.0765 24.9997 45.8334Z" fill="white"/>
</svg>
