<svg width="55" height="55" viewBox="0 0 55 55" fill="none" xmlns="http://www.w3.org/2000/svg">
<path d="M45.8333 35.5208C42.9688 35.5208 40.2188 35.0625 37.6521 34.2146C37.2492 34.0862 36.8189 34.0696 36.4073 34.1665C35.9957 34.2633 35.618 34.47 35.3146 34.7646L30.2729 39.8063C23.7735 36.4998 18.4871 31.2215 15.1708 24.7271L20.2125 19.6625C20.8542 19.0437 21.0375 18.15 20.7854 17.3479C19.9161 14.708 19.4751 11.946 19.4792 9.16667C19.4792 7.90625 18.4479 6.875 17.1875 6.875H9.16667C7.90625 6.875 6.875 7.90625 6.875 9.16667C6.875 30.6854 24.3146 48.125 45.8333 48.125C47.0938 48.125 48.125 47.0938 48.125 45.8333V37.8125C48.125 36.5521 47.0938 35.5208 45.8333 35.5208ZM27.5 6.875V29.7917L34.375 22.9167H48.125V6.875H27.5Z" fill="#525252"/>
</svg>
