<svg width="42" height="42" viewBox="0 0 42 42" fill="none" xmlns="http://www.w3.org/2000/svg">
<path fill-rule="evenodd" clip-rule="evenodd" d="M20.6846 42C32.1084 42 41.3693 32.598 41.3693 21C41.3693 9.40202 32.1084 0 20.6846 0C9.26083 0 0 9.40202 0 21C0 32.598 9.26083 42 20.6846 42ZM14.9966 12.7205C14.7574 12.8123 14.5401 12.9546 14.3591 13.138L13.2898 14.2238C12.5245 15.0008 12.1883 16.1632 12.5627 17.2448C13.5231 20.0153 15.0854 22.5307 17.1339 24.6045C19.1767 26.6845 21.6546 28.2708 24.3836 29.2458C25.4499 29.6269 26.5937 29.2857 27.359 28.5086L28.4284 27.4229C29.1958 26.6448 29.1172 25.3585 28.2598 24.6812L25.8749 22.7974C25.6589 22.627 25.4076 22.5086 25.1399 22.4513C24.8722 22.394 24.5952 22.3993 24.3298 22.4666L22.066 23.041C21.9485 23.0709 21.8254 23.0694 21.7087 23.0366C21.592 23.0039 21.4856 22.941 21.4 22.8541L18.8589 20.2741C18.7735 20.1873 18.7117 20.0794 18.6794 19.9611C18.6472 19.8428 18.6456 19.7181 18.6748 19.599L19.2406 17.2994C19.375 16.7533 19.255 16.1748 18.9148 15.7306L17.0584 13.3092C16.9013 13.1043 16.7032 12.9356 16.477 12.8144C16.2509 12.6931 16.002 12.6221 15.7468 12.6059C15.4915 12.5897 15.2358 12.6288 14.9966 12.7205Z" fill="white"/>
</svg>
