<svg width="30" height="30" viewBox="0 0 30 30" fill="none" xmlns="http://www.w3.org/2000/svg">
<path fill-rule="evenodd" clip-rule="evenodd" d="M15 30C23.2843 30 30 23.2843 30 15C30 6.71573 23.2843 0 15 0C6.71573 0 0 6.71573 0 15C0 23.2843 6.71573 30 15 30ZM10.8763 9.08442C10.7029 9.14995 10.5453 9.25161 10.4141 9.38265L9.63858 10.1582C9.0836 10.7132 8.83986 11.5435 9.11135 12.316C9.80778 14.295 10.9408 16.0917 12.4262 17.573C13.9077 19.0587 15.7045 20.1918 17.6836 20.8882C18.4568 21.1604 19.2863 20.9167 19.8413 20.3616L20.6167 19.5861C21.1732 19.0303 21.1162 18.1115 20.4945 17.6278L18.765 16.2822C18.6084 16.1605 18.4261 16.076 18.232 16.035C18.0379 15.9941 17.837 15.9978 17.6446 16.046L16.0029 16.4562C15.9177 16.4776 15.8284 16.4765 15.7438 16.4531C15.6592 16.4297 15.582 16.3848 15.5199 16.3227L13.6772 14.4799C13.6153 14.4178 13.5704 14.3408 13.547 14.2563C13.5236 14.1718 13.5225 14.0827 13.5437 13.9976L13.9539 12.355C14.0514 11.965 13.9644 11.5517 13.7177 11.2345L12.3715 9.5049C12.2576 9.35855 12.1139 9.23808 11.9499 9.15148C11.7859 9.06487 11.6054 9.0141 11.4203 9.00255C11.2352 8.99098 11.0498 9.0189 10.8763 9.08442Z" fill="#002157"/>
</svg>
