<svg width="42" height="42" viewBox="0 0 42 42" fill="none" xmlns="http://www.w3.org/2000/svg">
<ellipse cx="20.6846" cy="21" rx="20.6846" ry="21" fill="white"/>
<path d="M9.6713 21.3951L14.4268 23.1953L16.2806 29.2508C16.3612 29.6599 16.8448 29.7418 17.1672 29.4963L19.8271 27.2869C20.0689 27.0414 20.4719 27.0414 20.7943 27.2869L25.5498 30.8055C25.8722 31.051 26.3558 30.8874 26.4364 30.4782L29.9829 13.2939C30.0635 12.8847 29.6605 12.4756 29.2575 12.6392L9.6713 20.3313C9.18769 20.4949 9.18769 21.2314 9.6713 21.3951ZM16.0388 22.2952L25.3886 16.4853C25.5498 16.4034 25.711 16.6489 25.5498 16.7308L17.8927 24.0136C17.6508 24.2591 17.409 24.5865 17.409 24.9956L17.1672 26.9595C17.1672 27.205 16.7642 27.2868 16.6836 26.9595L15.7164 23.359C15.4746 22.9498 15.6358 22.4589 16.0388 22.2952Z" fill="#0F2A4A"/>
</svg>
