<svg width="42" height="42" viewBox="0 0 42 42" fill="none" xmlns="http://www.w3.org/2000/svg">
<ellipse cx="21.0001" cy="21" rx="20.6846" ry="21" fill="white"/>
<path d="M29.1968 12.6675C27.1535 10.6003 24.4292 9.4519 21.5535 9.4519C15.5752 9.4519 10.7319 14.3519 10.7319 20.4003C10.7319 22.3144 11.2617 24.2285 12.1698 25.8363L10.6562 31.5019L16.4076 29.9707C17.9968 30.8128 19.7373 31.2722 21.5535 31.2722C27.5319 31.2722 32.3751 26.3722 32.3751 20.3238C32.2995 17.491 31.24 14.7347 29.1968 12.6675ZM26.7751 24.305C26.5481 24.9175 25.4887 25.53 24.9589 25.6066C24.5049 25.6832 23.8995 25.6832 23.2941 25.53C22.9157 25.3769 22.386 25.2238 21.7806 24.9175C19.0562 23.7691 17.3157 21.0128 17.1643 20.7832C17.013 20.63 16.0292 19.3285 16.0292 17.9503C16.0292 16.5722 16.7103 15.9597 16.9373 15.6535C17.1643 15.3472 17.467 15.3472 17.6941 15.3472C17.8454 15.3472 18.0724 15.3472 18.2238 15.3472C18.3752 15.3472 18.6022 15.2707 18.8292 15.8066C19.0562 16.3425 19.586 17.7207 19.6616 17.7972C19.7373 17.9503 19.7373 18.1035 19.6616 18.2566C19.586 18.4097 19.5103 18.5628 19.3589 18.716C19.2076 18.8691 19.0562 19.0988 18.9806 19.1753C18.8292 19.3285 18.6779 19.4816 18.8292 19.7113C18.9806 20.0175 19.5103 20.8597 20.3427 21.6253C21.4022 22.5441 22.2346 22.8503 22.5373 23.0035C22.84 23.1566 22.9914 23.08 23.1427 22.9269C23.2941 22.7738 23.8238 22.1613 23.9751 21.855C24.1265 21.5488 24.3535 21.6253 24.5805 21.7019C24.8076 21.7785 26.1697 22.4675 26.3968 22.6207C26.6995 22.7738 26.8508 22.8503 26.9265 22.9269C27.0022 23.1566 27.0022 23.6925 26.7751 24.305Z" fill="#0F2A4A"/>
</svg>
